<?xml version="1.0" encoding="utf-8"?>
<!-- Generator: Adobe Illustrator 18.0.0, SVG Export Plug-In . SVG Version: 6.00 Build 0)  -->
<!DOCTYPE svg PUBLIC "-//W3C//DTD SVG 1.1//EN" "http://www.w3.org/Graphics/SVG/1.1/DTD/svg11.dtd">
<svg version="1.1" id="Слой_1" xmlns="http://www.w3.org/2000/svg" xmlns:xlink="http://www.w3.org/1999/xlink" x="0px" y="0px"
	 viewBox="0 0 180 240" enable-background="new 0 0 180 240" xml:space="preserve">
<path fill="#CAC1B1" d="M30.5,97.2L5,131.5l15.2,15.3l28.3-31.2"/>
<path fill="#E4DCC8" d="M141.2,102.9c4.3-5.9,6.3-13.6,4.8-20.8c-1.1-5.3-5.3-8.6-10.2-9.8c6.9-10,4.6-20.6,1.1-32.2
	c-4.1-13-0.6-18.6-15-30.9c-9.1-7.7-21.6-9.7-32.8-5.5l-2.7,1.1c-3.2,1.2-6.6,1.1-9.7-0.2l-5.1-2.2C54.9-4.8,35.5,4.7,31.1,22.6
	c-3.5,14.1-5.6,27.3-6.7,35c-0.7,4.6,0.7,9.1,3.8,12.5l2.2,2.4v0.2c-2.9,1.8-5.1,4.5-5.8,8c-1.2,5.6,2.3,11.5,5.9,16.6
	c-0.4,29.9-0.6,85.8,2.2,90.5c8.4,14.5,12.7,15.5,66.9,15.5c31.5,0,44.1-3.2,44.3-13.9c0.3-25.8-0.9-63-5.1-83.6
	C139.6,104.9,140.4,103.9,141.2,102.9L141.2,102.9z"/>
<path fill="#4B4F51" d="M110.1,6.4l31.9,5.9c4,0.8,7.1,3.8,8.1,7.6l1.9,6.9c0,0,6.6,14.3,2.5,17.5c-4.2,3.2-14.4-1.2-18.9-6.5
	C129.9,31,110.1,6.4,110.1,6.4L110.1,6.4z M57.9,3.2L25.6,6.3c-4,0.4-7.4,3-8.9,6.8l-2.6,6.8c0,0-8.1,13.5-4.2,17.2
	c3.9,3.7,14.4,0.3,19.4-4.6C35.8,26.3,57.9,3.2,57.9,3.2z"/>
<path opacity="0.5" fill="#4B4F51" enable-background="new    " d="M40.9,68.7c-9.9-5.8-13.2-18.6-7.4-28.5l0.1-0.1
	c0.5-0.9,1.2-1.7,1.9-2.3l9.3-8c4.1-2.6,8.2-5.4,13-6.6c5.4-1.4,10.8-0.6,14.3,2.4c4.3,3.5,5.6,9,6.7,15c0.2,1.2,0.5,2.7,0.3,4.1
	c-0.2,1.3-0.9,2.5-1.6,3.7c-2.3,4-12.5,21.4-15,25.3C59.7,77.9,49.9,73.8,40.9,68.7z"/>
<g>
	<path fill="#4B4F51" d="M67.8,47.2c-1.7,7.1-5,12.8-12.4,13.4s-13.5-5-14-12.3C40.9,41,53.9,25.4,65.3,33.4
		C68.6,35.5,69,42.4,67.8,47.2z"/>
	<path fill="#4B4F51" d="M45.8,49.6c-2.1-7.5,4.3-14.6,12-12.9c3.6,0.8,6.5,3.5,7.5,7c2.1,7.5-4.3,14.6-12,12.9
		C49.7,55.8,46.8,53.1,45.8,49.6z"/>
</g>
<path fill="#201D2C" d="M44.5,47.2c2.8,3.2,5.3,5.8,9.7,6.2c4.3,0.4,8.7-0.4,12.5-2.7c0.8-0.5,0.1-1.8-0.8-1.3
	c-3.2,1.9-6.6,2.7-10.3,2.6c-4.6-0.2-7.2-2.5-10.1-5.9C44.9,45.4,43.8,46.5,44.5,47.2L44.5,47.2z"/>
<path opacity="0.5" fill="#4B4F51" enable-background="new    " d="M124.4,68.7c9.9-5.8,13.2-18.6,7.4-28.5l-0.1-0.1
	c-0.5-0.9-1.2-1.7-1.9-2.3l-9.3-8c-4.1-2.6-8.2-5.4-13-6.6c-5.4-1.4-10.8-0.6-14.3,2.4c-4.3,3.5-5.6,9-6.7,15
	c-0.2,1.2-0.5,2.7-0.3,4.1c0.2,1.3,0.9,2.5,1.6,3.7c2.3,4,12.5,21.4,15,25.3C105.7,77.9,115.5,73.8,124.4,68.7z"/>
<g>
	<path fill="#4B4F51" d="M97.6,47.2c1.7,7.1,5,12.8,12.4,13.4s13.5-5,14-12.3S111.5,25.4,100,33.4C96.8,35.5,96.4,42.4,97.6,47.2z"
		/>
	<path fill="#4B4F51" d="M119.6,49.6c2.2-7.5-4.3-14.6-12-12.9c-3.6,0.8-6.5,3.6-7.5,7c-2.1,7.5,4.3,14.6,12,12.9
		C115.7,55.8,118.6,53.1,119.6,49.6z"/>
</g>
<path fill="#201D2C" d="M120.9,47.2c-2.8,3.2-5.3,5.8-9.7,6.2c-4.3,0.4-8.7-0.4-12.5-2.7c-0.8-0.5-0.1-1.8,0.8-1.3
	c3.2,1.9,6.6,2.7,10.3,2.6c4.6-0.2,7.2-2.5,10.1-5.9C120.5,45.4,121.6,46.5,120.9,47.2L120.9,47.2z"/>
<path fill="#4B4F51" d="M103,61.6l-12.7-13c-5.1-5.3-13.6-5.1-18.6,0.4L60.1,62.2c-6.2,5-4.4,22-0.2,25.6c4.8,4,38.5,3.9,43.1-0.4
	C107.1,83.6,109,66.4,103,61.6L103,61.6z"/>
<path fill="#201D2C" d="M84.1,49.1l4.4,1.4c0.5,0.1,0.9-0.3,0.8-0.8l-1-2.7c-4.1-2.8-9.4-2.9-13.5-0.4l-0.6,3
	c-0.1,0.5,0.4,0.9,0.9,0.7l2.3-1.2c0.3-0.2,0.7,0,0.9,0.3l2.2,3.7c0.2,0.6,1,0.5,1.2,0l1.8-3.5C83.4,49.2,83.7,49,84.1,49.1
	L84.1,49.1z M68.2,65.1c4.4,5.4,11.8,7.5,15.7,0.6l-2.7-1.2c-0.8,2.9,0.9,4.8,3.6,5.8c4.1,1.5,8.9-0.5,12.1-3c1.5-1.2,0-3.8-1.5-2.6
	c-2,1.5-4.1,2.6-6.5,2.9c-1.1,0.1-5.4,0.4-4.7-2.3c0.5-1.6-1.9-2.6-2.7-1.2c-3.2,5.5-8.1,2.4-11.1-1.2
	C69.1,61.5,66.9,63.6,68.2,65.1z"/>
<path fill="#EDE5D7" d="M75.4,65c-0.1-0.3-0.2-0.7-0.5-0.7c-0.3,0-0.5,0.2-0.6,0.4c-0.3,0.4-0.7,0.8-1,1.2l-0.2,0.2
	c0.9,0.5,1.8,0.9,2.6,1.2v-0.5L75.4,65z M90,67.5c0.9-0.1,1.6-0.4,2.3-0.9l-0.2-0.2c-0.4-0.5-0.8-0.9-1.2-1.3
	c-0.2-0.2-0.6-0.4-0.8-0.3c-0.2,0.1-0.3,0.4-0.3,0.7c0,0.5-0.1,1.1-0.1,1.6v0.4C89.8,67.5,90,67.5,90,67.5z"/>
<path fill="#201D2C" d="M57.4,14c-2.8,0.5-5.4,1.6-7.7,3.1c-3.4,2.2-0.2,7.6,3.3,5.4c2-1.3,4-2,6.2-2.4c1.7-0.3,2.6-2.4,2.2-3.9
	C60.8,14.4,59.1,13.7,57.4,14z M115.5,16.6c-2.5-1.4-5.1-2.2-7.9-2.6c-4-0.5-4.9,5.8-0.9,6.3c2.3,0.3,4.3,1,6.3,2.1
	c1.5,0.8,3.5-0.2,4.2-1.7C117.8,19,116.9,17.4,115.5,16.6z"/>
<path fill="#828A8D" d="M92.1,54.3c1.3,0,1.3-2,0-2S90.8,54.3,92.1,54.3z M94.8,58.2c1.3,0,1.3-2,0-2S93.5,58.2,94.8,58.2z
	 M89.5,58.2c1.3,0,1.3-2,0-2S88.2,58.2,89.5,58.2z M74.9,55.6c1.3,0,1.3-2,0-2S73.6,55.6,74.9,55.6z M77.6,59.6c1.3,0,1.3-2,0-2
	C76.3,57.5,76.3,59.6,77.6,59.6z M72.4,59.6c1.3,0,1.3-2,0-2C71.1,57.5,71.1,59.6,72.4,59.6z"/>
<path fill="#CFBFA1" d="M80.9,16.7c-0.7,0-1.4,0-2-0.2c-2.9-0.4-5.6-1.9-8.3-3.2c-3.8-2-7.3-3.8-11.1-2.7c-0.4,0.1-0.8-0.1-0.9-0.5
	c-0.1-0.4,0.1-0.8,0.5-0.9c4.3-1.3,8.2,0.8,12.1,2.8c2.6,1.3,5.1,2.7,7.8,3.1c4.8,0.7,9.2-1.5,13.8-3.9c3.4-1.7,6.8-3.5,10.5-4.1
	c0.4-0.1,0.7,0.2,0.8,0.6s-0.2,0.7-0.6,0.8c-3.5,0.6-6.8,2.3-10.1,4C89.6,14.7,85.4,16.7,80.9,16.7L80.9,16.7z"/>
<path fill="#CAC1B1" d="M143.7,97.2l25.4,34.2L154,146.8l-28.4-31.2"/>
<linearGradient id="SVGID_1_" gradientUnits="userSpaceOnUse" x1="18.2104" y1="33.2662" x2="-12.2823" y2="-15.7874" gradientTransform="matrix(1 0 0 -1 0 242)">
	<stop  offset="0" style="stop-color:#E4DCC8"/>
	<stop  offset="1" style="stop-color:#383229"/>
</linearGradient>
<path fill="url(#SVGID_1_)" d="M41.2,176.2l-10.1-4.8c-9.8-4.6-21.2,1.2-23.3,11.8l-2.4,11.4c-1.1,5.6-0.3,11.2,2.4,16.2l5.5,10.4
	L0,231.7l2.1,5.1l10.6,3.3l44.2-49.1L41.2,176.2z"/>
<linearGradient id="SVGID_2_" gradientUnits="userSpaceOnUse" x1="160.9211" y1="36.1221" x2="205.3293" y2="-30.8217" gradientTransform="matrix(1 0 0 -1 0 242)">
	<stop  offset="0" style="stop-color:#E4DCC8"/>
	<stop  offset="1" style="stop-color:#383229"/>
</linearGradient>
<path fill="url(#SVGID_2_)" d="M138.8,176.2l10.1-4.8c9.8-4.6,21.2,1.2,23.3,11.8l2.4,11.4c1.1,5.6,0.3,11.2-2.4,16.2l-5.5,10.4
	l13.3,10.4l-2.1,5.1l-10.6,3.3l-44.2-49.1L138.8,176.2z"/>
<path fill="#C9C1B5" d="M132.8,200.8c0.6-5.2-1.8-16.9-1.8-16.9s-0.9-16.1-4.4-24.5c-5-12.1-17.1-20.3-29.9-22.8
	c-12.8-2.6-26-0.1-38.3,4.5c-3.1,1.2-6.2,2.5-8.3,5.1c-3,3.6-3.2,8.7-3,13.4c0.3,12-4.2,29.8,0.7,41.2c8.8,2.3,23.4,2.5,51.6,2.5
	C112.3,203.3,123.7,202.5,132.8,200.8L132.8,200.8z"/>
<path fill="#7790C9" d="M12.2,121.1c0,0,8.5-4.2,15.2,1.3c4,3.3,2.7,10.8,2.7,10.8l0.9,31.2c0,0,19,10.3,55.1,9.6
	c36-0.7,58.4-10.3,58.4-10.3l0.1-31.9l-0.1-33.9c0,0-30.3,14.4-58.2,13S30.5,97.3,30.5,97.3L12.2,121.1L12.2,121.1z"/>
<path fill="#194090" d="M90.1,127.3h-43v3.7h2.6v5.7h3v4.1h10.4v-3.9h4.3v-4.8h7.6v4.1h4.6v4.6H91v-3.9h2.8v-5.1h19.4v-4.5"/>
<path opacity="0.9" fill="#FFFFFF" enable-background="new    " d="M54.2,131.1h2.4v2.4h-2.4V131.1z M79.9,131.1h2.4v2.4h-2.4V131.1
	z"/>
<path fill="#586BB1" d="M27.4,122.4c4,3.3,2.7,10.8,2.7,10.8l0.1,4l0.5-0.1c0,0,6.9-21.4,7.4-26.9c0.5-5.5-7.5-12.8-7.5-12.8
	l-18.4,23.7C12.2,121.1,20.7,116.9,27.4,122.4L27.4,122.4z"/>
<path fill="#E4DCC8" d="M27.2,168.6c-6.8,2.2-14-1.6-16.2-8.4l-6.2-19.9c-2.2-6.8,1.6-14.2,8.4-16.4c6.8-2.2,14,1.6,16.2,8.4
	l6.2,19.9C37.8,159.1,34,166.4,27.2,168.6z"/>
<path fill="#CFBFA1" d="M107.9,103c-0.3,0-0.5-0.2-0.5-0.5s0.2-0.5,0.5-0.5c11.8-0.7,23.5-5.9,32.1-14c0.2-0.2,0.5-0.2,0.7,0
	c0.2,0.2,0.2,0.5,0,0.7C131.9,97,119.9,102.3,107.9,103z"/>
<path fill="#586BB1" d="M147.4,123.2c-4,3.3-2.7,10.8-2.7,10.8l-0.1,4l-0.5-0.1c0,0-6.9-21.4-7.4-26.9c-0.5-5.5,7.5-12.8,7.5-12.8
	l18.4,23.7C162.6,121.8,154.1,117.6,147.4,123.2L147.4,123.2z"/>
<path fill="#B3E0F9" d="M132.4,217.2h-16.1c-7.3,0-13.2-6-13.2-13.3v-81.1c0-1.3,1-2.3,2.3-2.3h37.9c1.3,0,2.3,1,2.3,2.3v81.1
	C145.5,211.2,139.7,217.2,132.4,217.2z"/>
<g>
	<path fill="#DC61A0" d="M123.1,205.6l-4.9-0.5l10.1-102.5c0.4-3.7-1.8-7-5.1-8.3L111.9,90l1.7-4.7l11.2,4.2c5.5,2.1,9,7.6,8.4,13.5
		L123.1,205.6z"/>
</g>
<path opacity="0.8" fill="#5C1E11" enable-background="new    " d="M134.8,212.3h-21.2c-4.3,0-7.7-3.5-7.7-7.7v-62.1
	c0-1.3,1-2.3,2.3-2.3h31.9c1.3,0,2.3,1,2.3,2.3v62.1C142.5,208.8,139.1,212.3,134.8,212.3L134.8,212.3z"/>
<path opacity="0.9" fill="#FFFFFF" enable-background="new    " d="M131.3,153.3l-15-7.5l7.4-15.2l15.1,7.5"/>
<path opacity="0.4" fill="#FFFFFF" enable-background="new    " d="M133.6,171.1l-12.8,5.7l-5.6-12.8l12.8-5.8"/>
<path opacity="0.4" fill="#FFFFFF" enable-background="new    " d="M126.5,164.5l-16.3-3.7l3.7-16.5l16.3,3.8"/>
<path fill="#E4DCC8" d="M142.2,167.4c6.1,3.6,14,1.5,17.6-4.8l10.3-18.1c3.6-6.3,1.5-14.2-4.7-17.8c-6.1-3.6-14-1.5-17.6,4.8
	l-10.3,18.1C133.9,155.9,136.1,163.9,142.2,167.4z"/>
<g>
	<path fill="#CFBFA1" d="M58,89.7L58,89.7c-5-1.5-9.9-3.8-14.4-6.8c-2.9-1.9-5.6-4-8.1-6.4c-0.2-0.2-0.2-0.5,0-0.7
		c0.2-0.2,0.5-0.2,0.7,0c2.5,2.3,5.1,4.4,8,6.3c4.5,3,9.3,5.2,14.1,6.7c0.3,0.1,0.4,0.4,0.3,0.6C58.4,89.6,58.2,89.7,58,89.7z"/>
</g>
<g>
	<path fill="#CFBFA1" d="M116.8,81.8c-0.2,0-0.4-0.2-0.5-0.4c-0.1-0.3,0.1-0.5,0.4-0.6c5.4-1.1,10.7-3.6,14.9-7.1
		c0.2-0.2,0.5-0.1,0.7,0.1c0.2,0.2,0.1,0.5-0.1,0.7C127.8,78.1,122.5,80.6,116.8,81.8C116.9,81.8,116.8,81.8,116.8,81.8L116.8,81.8z
		"/>
</g>
<g>
	<path fill="#CFBFA1" d="M83.2,105.9c-9.7,0-19.4-2.4-27.9-6.9c-0.2-0.1-0.3-0.4-0.2-0.7c0.1-0.2,0.4-0.3,0.7-0.2
		c10.5,5.7,22.8,7.9,34.7,6.4c0.3,0,0.5,0.2,0.6,0.4c0,0.3-0.2,0.5-0.4,0.6C88.2,105.7,85.7,105.9,83.2,105.9L83.2,105.9z"/>
</g>
<g>
	<path fill="#4B4F51" d="M139.8,164.4c-0.1,0-0.3-0.1-0.4-0.2c-0.2-0.2-0.2-0.5,0-0.7c2.1-1.8,3.4-4.6,3.5-7.3
		c0-0.3,0.2-0.5,0.5-0.5c0.3,0,0.5,0.2,0.5,0.5c-0.1,3.1-1.5,6.1-3.8,8C140,164.3,139.9,164.4,139.8,164.4L139.8,164.4z
		 M145.2,167.4c-0.1,0-0.3-0.1-0.4-0.2c-0.2-0.2-0.2-0.5,0-0.7c1.7-1.5,2.5-3.9,2.1-6.1c-0.1-0.3,0.1-0.5,0.4-0.6
		c0.3-0.1,0.5,0.1,0.6,0.4c0.5,2.6-0.5,5.4-2.4,7C145.4,167.4,145.3,167.4,145.2,167.4L145.2,167.4z M150.1,167.1
		c-0.1,0-0.3-0.1-0.4-0.2c-0.2-0.2-0.1-0.5,0.1-0.7c1.3-1,2.3-2.3,3.1-3.7c0.1-0.2,0.4-0.3,0.7-0.2c0.2,0.1,0.3,0.4,0.2,0.7
		c-0.8,1.5-2,2.9-3.4,4C150.3,167,150.2,167.1,150.1,167.1L150.1,167.1z"/>
</g>
<g>
	<path fill="#4B4F51" d="M31.6,164.1c0.1,0,0.3-0.1,0.4-0.2c0.2-0.2,0.2-0.5,0-0.7c-2.1-1.8-3.4-4.6-3.5-7.3c0-0.3-0.2-0.5-0.5-0.5
		s-0.5,0.2-0.5,0.5c0.1,3.1,1.5,6.1,3.8,8C31.4,164.1,31.5,164.1,31.6,164.1L31.6,164.1z M26.2,167.2c0.1,0,0.3-0.1,0.4-0.2
		c0.2-0.2,0.2-0.5,0-0.7c-1.7-1.5-2.5-3.9-2.1-6.1c0.1-0.3-0.1-0.5-0.4-0.6c-0.3-0.1-0.5,0.1-0.6,0.4c-0.5,2.6,0.5,5.4,2.4,7
		C26,167.1,26.1,167.2,26.2,167.2L26.2,167.2z M21.3,166.8c0.1,0,0.3-0.1,0.4-0.2c0.2-0.2,0.1-0.5-0.1-0.7c-1.3-1-2.3-2.3-3.1-3.7
		c-0.1-0.2-0.4-0.3-0.7-0.2c-0.2,0.1-0.3,0.4-0.2,0.7c0.8,1.5,2,2.9,3.4,4C21.1,166.8,21.2,166.8,21.3,166.8L21.3,166.8z"/>
</g>
<g>
	<path fill="#CFBFA1" d="M84.3,27.4h-0.7c-1.6-0.2-2.9-1.2-3.9-2l-6.3-4.9c-0.2-0.2-0.3-0.5-0.1-0.7c0.2-0.2,0.5-0.3,0.7-0.1
		l6.3,4.9c1,0.8,2.2,1.7,3.5,1.8c2.2,0.3,4.3-1.4,5.9-3.1l6.2-6c0.2-0.2,0.5-0.2,0.7,0c0.2,0.2,0.2,0.5,0,0.7l-6.2,6
		C88.6,25.7,86.5,27.4,84.3,27.4z"/>
</g>
</svg>
