<svg xmlns="http://www.w3.org/2000/svg" viewBox="0 0 1200 690"><path fill="#4D2B16" d="M455.2 337h21.6v78.3h-21.6z"/><path opacity=".6" fill="#4D2B16" d="M444.2 337h21.6v78.3h-21.6z"/><path fill="#4D2B16" d="M718.3 337h21.6v78.3h-21.6z"/><path fill="#4D2B16" d="M751.6 343H435.4c-4.5 0-8.2-3.7-8.2-8.2v-52.3c0-4.5 3.7-8.2 8.2-8.2h316.2c4.5 0 8.2 3.7 8.2 8.2v52.3c0 4.5-3.6 8.2-8.2 8.2z"/><path fill="#BF6A37" d="M751.2 206.4H438.1V30.7c0-16.9 13.7-30.7 30.7-30.7h251.8c16.9 0 30.7 13.7 30.7 30.7v175.7z"/><path fill="#A95D2F" d="M760.7 300.8h-332c-6.6 0-12-5.4-12-12v-73.1c0-6.6 5.4-12 12-12l90.3-3.5c12.4-.5 24.9.6 37.1 3.1l59.6 12.3 145-11.9c6.6 0 12 5.4 12 12v73.1c0 6.6-5.4 12-12 12z"/><path opacity=".2" fill="#4D2B16" d="M564.3 64.1c0 3.2.2 6.6-1.2 9.4-2 3.9-7.2 6.2-7.4 10.6-.2 3.7 3.3 6.6 4.3 10.2 1.5 5.8-3.8 11.2-4.3 17.1-.3 4 1.6 7.9 1.8 11.9.5 11.8-13.2 19.9-14.3 31.6-1.1 12.2 12 21.6 13.1 33.8.6 6.9-2.7 13.6-3.3 20.5-.7 7.4 1.9 15 6.9 20.5.6.6 1.2 1.2 2 1.5 2 .6 3.8-1.3 5.3-2.8 8.3-8.6 21-10.8 31.8-15.9s20-13.5 26.1-23.8c9.3-15.7 11-34.9 9.3-53.1-1.7-18.2-6.4-35.9-9.2-54-1.6-10.6-2.6-21.3-5.8-31.5-4.4-14.1-13.8-30.8-30.2-23.3-14.2 6.6-24.6 21.5-24.9 37.3z"/><path fill="#8C4E2A" d="M416.7 247.6v41.2c0 6.6 5.4 12 12 12h332c6.6 0 12-5.4 12-12v-41.2h-356z"/><path fill="#BD7248" d="M469.7 205.7c6.6 34.3-22.8 63.8-56.9 57.2-19.1-3.7-34.2-18.8-37.9-38-6.6-34.3 22.8-63.8 56.9-57.2 19.2 3.7 34.3 18.8 37.9 38z"/><path fill="#A95D2F" d="M424.2 212.1c-5.6-6.7-7.2-17.9-.4-24.5 1.5-1.5-.8-3.8-2.3-2.3-8.1 7.9-6.3 21.1.4 29.2 1.3 1.6 3.6-.8 2.3-2.4zM415.6 214.8c-5.2 8.7-19.6-.2-25.1-4.5-1.7-1.3-4 1-2.3 2.3 7.3 5.7 23.6 15.1 30.3 3.8 1.1-1.8-1.8-3.5-2.9-1.6z"/><path fill="#A95D2F" d="M424.2 216.9c7.3 10.9 23.5 9 31.7.3 1.5-1.5-.9-3.9-2.3-2.3-6.6 7-20.3 9.6-26.5.4-1.3-1.8-4.1-.1-2.9 1.6zM418.6 221.9c5.6 6.7 7.2 17.9.4 24.5-1.5 1.5.8 3.8 2.3 2.3 8.1-7.9 6.3-21.1-.4-29.2-1.3-1.6-3.6.7-2.3 2.4z"/><path fill="#4D2B16" d="M428.2 214.7c1.5 5.3-3.3 10.1-8.6 8.6-2.2-.6-4-2.4-4.6-4.6-1.5-5.3 3.3-10.1 8.6-8.6 2.2.6 4 2.4 4.6 4.6z"/><g><path fill="#A95D2F" d="M503.2 62.7c-2.7-3.2-3.4-8.6-.2-11.8.7-.7-.4-1.8-1.1-1.1-3.9 3.8-3 10.2.2 14.1.6.7 1.7-.5 1.1-1.2zM499.1 63.9c-2.5 4.2-9.5-.1-12.1-2.2-.8-.6-1.9.5-1.1 1.1 3.5 2.8 11.4 7.3 14.6 1.8.5-.7-.9-1.5-1.4-.7z"/><path fill="#A95D2F" d="M503.2 65c3.5 5.3 11.3 4.3 15.2.1.7-.7-.4-1.9-1.1-1.1-3.2 3.4-9.8 4.6-12.7.2-.6-.9-2-.1-1.4.8zM500.5 67.4c2.7 3.2 3.4 8.6.2 11.8-.7.7.4 1.8 1.1 1.1 3.9-3.8 3-10.2-.2-14.1-.6-.8-1.7.4-1.1 1.2z"/><path fill="#4D2B16" d="M505.1 63.8c.9 2.7-1.6 5.1-4.2 4.3-1-.3-1.7-1.1-2-2-.9-2.7 1.6-5.1 4.2-4.3.9.2 1.7 1 2 2z"/></g><g><path fill="#A95D2F" d="M503.2 153c-2.7-3.2-3.4-8.6-.2-11.8.7-.7-.4-1.8-1.1-1.1-3.9 3.8-3 10.2.2 14.1.6.7 1.7-.4 1.1-1.2zM499.1 154.3c-2.5 4.2-9.5-.1-12.1-2.2-.8-.6-1.9.5-1.1 1.1 3.5 2.8 11.4 7.3 14.6 1.8.5-.8-.9-1.6-1.4-.7z"/><path fill="#A95D2F" d="M503.2 155.3c3.5 5.3 11.3 4.3 15.2.1.7-.7-.4-1.9-1.1-1.1-3.2 3.4-9.8 4.6-12.7.2-.6-.8-2 0-1.4.8zM500.5 157.7c2.7 3.2 3.4 8.6.2 11.8-.7.7.4 1.8 1.1 1.1 3.9-3.8 3-10.2-.2-14.1-.6-.7-1.7.4-1.1 1.2z"/><path fill="#4D2B16" d="M505.1 154.1c.9 2.7-1.6 5.1-4.2 4.3-1-.3-1.7-1.1-2-2-.9-2.7 1.6-5.1 4.2-4.3.9.3 1.7 1.1 2 2z"/></g><g><path fill="#CAC1B0" d="M580.1 114.7l-25.8 34.5 15.4 15.4 28.6-31.4"/><path fill="#E5DCC8" d="M692 120.4c4.4-5.9 6.4-13.7 4.9-21-1.1-5.3-5.4-8.7-10.3-9.9 7-10.1 4.7-20.8 1.1-32.4-4.1-13.1-.6-18.7-15.2-31.1-9.2-7.8-21.9-9.8-33.2-5.5l-2.7 1.1c-3.2 1.2-6.7 1.1-9.8-.2l-5.2-2.2c-16.9-7.3-36.5 2.3-40.9 20.3-3.5 14.2-5.7 27.5-6.8 35.3-.7 4.6.7 9.2 3.8 12.6l2.2 2.4v.2c-2.9 1.8-5.2 4.5-5.9 8.1-1.2 5.6 2.3 11.6 6 16.7-.4 30.1-.6 86.4 2.2 91.2 8.5 14.6 12.8 15.6 67.7 15.6 31.9 0 44.6-3.2 44.8-14 .3-26-.9-63.5-5.2-84.2.9-1 1.7-2 2.5-3z"/><path fill="#4A4E50" d="M660.6 23.2l32.3 5.9c4 .8 7.2 3.8 8.2 7.7l1.9 7s6.7 14.4 2.5 17.6-14.6-1.2-19.1-6.5c-5.8-6.9-25.8-31.7-25.8-31.7zM607.8 20l-32.7 3.1c-4 .4-7.5 3-9 6.9l-2.6 6.8s-8.2 13.6-4.2 17.3c3.9 3.7 14.6.3 19.6-4.6 6.5-6.3 28.9-29.5 28.9-29.5z"/><path fill="#4A4E50" d="M590.6 85.9c-10-5.8-13.4-18.7-7.5-28.7l.1-.1c.5-.9 1.2-1.7 1.9-2.3l9.4-8.1c4.1-2.6 8.3-5.4 13.2-6.6 5.5-1.4 10.9-.6 14.5 2.4 4.3 3.5 5.7 9.1 6.8 15.1.2 1.2.5 2.7.3 4.1-.2 1.3-.9 2.5-1.6 3.7-2.3 4-12.6 21.6-15.2 25.5-2.9 4.3-12.8.2-21.9-5z" opacity=".5"/><g fill="#4A4E50"><path d="M617.8 64.3c-1.7 7.2-5.1 12.9-12.5 13.5s-13.7-5-14.2-12.4 12.6-23.1 24.2-15c3.3 2.1 3.7 9.1 2.5 13.9z"/><path d="M595.5 66.7c-2.1-7.6 4.4-14.7 12.1-13 3.6.8 6.6 3.5 7.6 7.1 2.1 7.6-4.4 14.7-12.1 13-3.6-.8-6.6-3.6-7.6-7.1z"/></g><path fill="#1F1D2C" d="M594.2 64.3c2.8 3.2 5.4 5.8 9.8 6.2 4.4.4 8.8-.4 12.6-2.7.8-.5.1-1.8-.8-1.3-3.2 1.9-6.7 2.7-10.4 2.6-4.7-.2-7.3-2.5-10.2-5.9-.6-.7-1.7.4-1 1.1z"/><path fill="#4A4E50" d="M675.1 85.9c10-5.8 13.4-18.7 7.5-28.7l-.1-.1c-.5-.9-1.2-1.7-1.9-2.3l-9.4-8.1c-4.1-2.6-8.3-5.4-13.2-6.6-5.5-1.4-10.9-.6-14.5 2.4-4.3 3.5-5.7 9.1-6.8 15.1-.2 1.2-.5 2.7-.3 4.1.2 1.3.9 2.5 1.6 3.7 2.3 4 12.6 21.6 15.2 25.5 2.9 4.3 12.8.2 21.9-5z" opacity=".5"/><g fill="#4A4E50"><path d="M647.9 64.3c1.7 7.2 5.1 12.9 12.5 13.5s13.7-5 14.2-12.4-12.6-23.1-24.2-15c-3.3 2.1-3.7 9.1-2.5 13.9z"/><path d="M670.2 66.7c2.2-7.6-4.4-14.7-12.1-13-3.6.8-6.6 3.6-7.6 7.1-2.1 7.6 4.4 14.7 12.1 13 3.6-.8 6.6-3.6 7.6-7.1z"/></g><path fill="#1F1D2C" d="M671.5 64.3c-2.8 3.2-5.4 5.8-9.8 6.2-4.4.4-8.8-.4-12.6-2.7-.8-.5-.1-1.8.8-1.3 3.2 1.9 6.7 2.7 10.4 2.6 4.7-.2 7.3-2.5 10.2-5.9.6-.7 1.7.4 1 1.1z"/><path fill="#4A4E50" d="M653.4 78.8l-12.8-13.1c-5.2-5.3-13.8-5.1-18.8.4L610 79.4c-6.3 5-4.5 22.2-.2 25.8 4.9 4 38.9 3.9 43.6-.4 4.1-3.8 6.1-21.2 0-26z"/><path fill="#1F1D2C" d="M634.3 66.2l4.5 1.4c.5.1.9-.3.8-.8l-1-2.7c-4.1-2.8-9.5-2.9-13.7-.4l-.6 3c-.1.5.4.9.9.7l2.3-1.2c.3-.2.7 0 .9.3l2.2 3.7c.2.6 1 .5 1.2 0l1.8-3.5c0-.4.3-.6.7-.5zM618.2 82.3c4.5 5.4 11.9 7.6 15.9.6l-2.7-1.2c-.8 2.9.9 4.8 3.6 5.8 4.1 1.5 9-.5 12.2-3 1.5-1.2 0-3.8-1.5-2.6-2 1.5-4.1 2.6-6.6 2.9-1.1.1-5.5.4-4.8-2.3.5-1.6-1.9-2.6-2.7-1.2-3.2 5.5-8.2 2.4-11.2-1.2-1.3-1.4-3.5.7-2.2 2.2z"/><path fill="#EDE5D7" d="M625.5 82.2c-.1-.3-.2-.7-.5-.7s-.5.2-.6.4c-.3.4-.7.8-1 1.2l-.2.2c.9.5 1.8.9 2.6 1.2V84l-.3-1.8zM640.3 84.7c.9-.1 1.6-.4 2.3-.9l-.2-.2c-.4-.5-.8-.9-1.2-1.3-.2-.2-.6-.4-.8-.3-.2.1-.3.4-.3.7 0 .5-.1 1.1-.1 1.6v.4h.3z"/><path fill="#1F1D2C" d="M607.3 30.8c-2.8.5-5.5 1.6-7.8 3.1-3.4 2.2-.2 7.7 3.3 5.4 2-1.3 4-2 6.3-2.4 1.7-.3 2.6-2.4 2.2-3.9-.6-1.8-2.3-2.5-4-2.2zM666 33.5c-2.5-1.4-5.2-2.2-8-2.6-4-.5-5 5.8-.9 6.3 2.3.3 4.4 1 6.4 2.1 1.5.8 3.5-.2 4.2-1.7.7-1.7-.2-3.3-1.7-4.1z"/><path fill="#828A8D" d="M642.4 71.4c1.3 0 1.3-2 0-2s-1.3 2 0 2zM645.1 75.4c1.3 0 1.3-2 0-2s-1.3 2 0 2zM639.7 75.4c1.3 0 1.3-2 0-2s-1.3 2 0 2zM625 72.7c1.3 0 1.3-2 0-2s-1.3 2 0 2zM627.7 76.8c1.3 0 1.3-2 0-2-1.3-.1-1.3 2 0 2zM622.4 76.8c1.3 0 1.3-2 0-2-1.3-.1-1.3 2 0 2z"/><path fill="#CFBFA0" d="M631 33.6c-.7 0-1.4 0-2-.2-2.9-.4-5.7-1.9-8.4-3.2-3.8-2-7.4-3.8-11.2-2.7-.4.1-.8-.1-.9-.5-.1-.4.1-.8.5-.9 4.3-1.3 8.3.8 12.2 2.8 2.6 1.3 5.2 2.7 7.9 3.1 4.9.7 9.3-1.5 14-3.9 3.4-1.7 6.9-3.5 10.6-4.1.4-.1.7.2.8.6.1.4-.2.7-.6.8-3.5.6-6.9 2.3-10.2 4-3.9 2.1-8.1 4.2-12.7 4.2z"/><path fill="#CAC1B0" d="M694.6 114.7l25.7 34.5-15.3 15.4-28.7-31.4"/><linearGradient id="a" gradientUnits="userSpaceOnUse" x1="567.6696" y1="227.03" x2="536.9155" y2="276.504"><stop offset="0" stop-color="#E5DCC8"/><stop offset="1" stop-color="#373128"/></linearGradient><path fill="url(#a)" d="M590.9 194.2l-10.2-4.8c-9.9-4.6-21.4 1.2-23.6 11.9l-2.4 11.5c-1.1 5.6-.3 11.3 2.4 16.3l5.6 10.5-13.5 10.5 2.1 5.1 10.7 3.3 44.7-49.5-15.8-14.8z"/><linearGradient id="b" gradientUnits="userSpaceOnUse" x1="711.976" y1="224.1369" x2="756.7675" y2="291.6584"><stop offset="0" stop-color="#E5DCC8"/><stop offset="1" stop-color="#373128"/></linearGradient><path fill="url(#b)" d="M689.6 194.2l10.2-4.8c9.9-4.6 21.4 1.2 23.6 11.9l2.4 11.5c1.1 5.6.3 11.3-2.4 16.3l-5.6 10.5 13.5 10.5-2.1 5.1-10.7 3.3-44.7-49.5 15.8-14.8z"/><path fill="#C8C1B4" d="M683.5 219c.6-5.2-1.8-17-1.8-17s-.9-16.2-4.5-24.7c-5.1-12.2-17.3-20.4-30.2-23-12.9-2.6-26.3-.1-38.7 4.5-3.1 1.2-6.3 2.5-8.4 5.1-3 3.6-3.2 8.8-3 13.5.3 12.1-4.2 30 .7 41.5 8.9 2.3 23.7 2.5 52.2 2.5 13 .1 24.5-.7 33.7-2.4z"/><path fill="#7790C9" d="M561.5 138.7s8.6-4.2 15.4 1.3c4 3.3 2.7 10.9 2.7 10.9l.9 31.4s19.2 10.4 55.7 9.7c36.4-.7 59.1-10.4 59.1-10.4l.1-32.1-.1-34.1s-30.7 14.5-58.9 13.1c-28.2-1.4-56.3-13.7-56.3-13.7l-18.6 23.9z"/><path fill="#1B3E92" d="M640.4 145h-43.5v3.7h2.6v5.7h3v4.1H613v-3.9h4.3v-4.8h7.7v4.1h4.7v4.6h11.6v-3.9h2.8v-5.1h19.6V145"/><path opacity=".9" fill="#FFF" d="M604 148.8h2.4v2.4H604zM630 148.8h2.4v2.4H630z"/><path fill="#576BB1" d="M576.9 140c4 3.3 2.7 10.9 2.7 10.9l.1 4 .5-.1s7-21.6 7.5-27.1-7.6-12.9-7.6-12.9l-18.6 23.9s8.6-4.2 15.4 1.3z"/><path fill="#E5DCC8" d="M576.7 186.6c-6.9 2.2-14.2-1.6-16.4-8.5l-6.3-20c-2.2-6.9 1.6-14.3 8.5-16.5 6.9-2.2 14.2 1.6 16.4 8.5l6.3 20c2.2 6.9-1.6 14.3-8.5 16.5z"/><path fill="#CFBFA0" d="M658.4 120.5c-.3 0-.5-.2-.5-.5s.2-.5.5-.5c11.9-.7 23.8-5.9 32.5-14.1.2-.2.5-.2.7 0 .2.2.2.5 0 .7-9 8.4-21.1 13.7-33.2 14.4z"/><path fill="#576BB1" d="M698.3 140.8c-4 3.3-2.7 10.9-2.7 10.9l-.1 4-.5-.1s-7-21.6-7.5-27.1 7.6-12.9 7.6-12.9l18.6 23.9c0-.1-8.6-4.3-15.4 1.3z"/><path fill="#BD7248" d="M814.8 205.7c6.6 34.3-22.8 63.8-56.9 57.2-19.1-3.7-34.2-18.8-37.9-38-6.6-34.3 22.8-63.8 56.9-57.2 19.1 3.7 34.2 18.8 37.9 38z"/><path fill="#A95D2F" d="M769.2 212.1c-5.6-6.7-7.2-17.9-.4-24.5 1.5-1.5-.8-3.8-2.3-2.3-8.1 7.9-6.3 21.1.4 29.2 1.3 1.6 3.6-.8 2.3-2.4zM760.7 214.8c-5.2 8.7-19.6-.2-25.1-4.5-1.7-1.3-4 1-2.3 2.3 7.3 5.7 23.6 15.1 30.3 3.8 1-1.8-1.8-3.5-2.9-1.6z"/><path fill="#A95D2F" d="M769.2 216.9c7.3 10.9 23.5 9 31.7.3 1.5-1.5-.9-3.9-2.3-2.3-6.6 7-20.3 9.6-26.5.4-1.3-1.8-4.1-.1-2.9 1.6zM763.7 221.9c5.6 6.7 7.2 17.9.4 24.5-1.5 1.5.8 3.8 2.3 2.3 8.1-7.9 6.3-21.1-.4-29.2-1.4-1.6-3.7.7-2.3 2.4z"/><path fill="#4D2B16" d="M773.3 214.7c1.5 5.3-3.3 10.1-8.6 8.6-2.2-.6-4-2.4-4.6-4.6-1.5-5.3 3.3-10.1 8.6-8.6 2.2.6 3.9 2.4 4.6 4.6z"/><path fill="#B1DFF9" d="M683.1 235.5h-16.3c-7.4 0-13.4-6-13.4-13.4v-81.7c0-1.3 1-2.3 2.3-2.3H694c1.3 0 2.3 1 2.3 2.3v81.7c.1 7.4-5.8 13.4-13.2 13.4z"/><g><path fill="#DD60A0" d="M673.7 223.8l-5-.5L678.9 120c.4-3.7-1.8-7.1-5.2-8.4l-11.3-4.2 1.7-4.7 11.3 4.2c5.6 2.1 9.1 7.7 8.5 13.6l-10.2 103.3z"/></g><path opacity=".8" fill="#5C1C0E" d="M685.6 230.6h-21.4c-4.3 0-7.8-3.5-7.8-7.8v-62.6c0-1.3 1-2.3 2.3-2.3H691c1.3 0 2.3 1 2.3 2.3v62.6c.1 4.3-3.4 7.8-7.7 7.8z"/><path opacity=".9" fill="#FFF" d="M682 171.2l-15.2-7.6 7.5-15.3 15.3 7.6"/><path opacity=".4" fill="#FFF" d="M684.4 189.1l-12.9 5.7-5.7-12.9 12.9-5.8"/><path opacity=".4" fill="#FFF" d="M677.2 182.4l-16.5-3.7 3.7-16.6 16.5 3.8"/><path fill="#E5DCC8" d="M693.1 185.4c6.2 3.6 14.2 1.5 17.8-4.8l10.4-18.2c3.6-6.3 1.5-14.3-4.8-17.9-6.2-3.6-14.2-1.5-17.8 4.8l-10.4 18.2c-3.6 6.3-1.4 14.3 4.8 17.9z"/><g><path fill="#CFBFA0" d="M607.9 107.1h-.1c-5-1.5-9.9-3.8-14.5-6.8-2.9-1.9-5.7-4-8.2-6.4-.2-.2-.2-.5 0-.7.2-.2.5-.2.7 0 2.5 2.3 5.2 4.4 8.1 6.3 4.6 3 9.4 5.2 14.3 6.7.3.1.4.4.3.6-.2.2-.4.3-.6.3z"/></g><g><path fill="#CFBFA0" d="M667.4 99.1c-.2 0-.4-.2-.5-.4-.1-.3.1-.5.4-.6 5.5-1.1 10.8-3.6 15.1-7.2.2-.2.5-.1.7.1.2.2.1.5-.1.7-4.5 3.7-9.9 6.2-15.6 7.4.1 0 0 0 0 0z"/></g><g><path fill="#CFBFA0" d="M633.4 123.4c-9.8 0-19.6-2.4-28.2-7-.2-.1-.3-.4-.2-.7.1-.2.4-.3.7-.2 10.6 5.7 23.1 8 35.1 6.4.3 0 .5.2.6.4 0 .3-.2.5-.4.6-2.6.3-5.1.5-7.6.5z"/></g><g><path fill="#4A4E50" d="M690.6 182.3c-.1 0-.3-.1-.4-.2-.2-.2-.2-.5 0-.7 2.1-1.8 3.4-4.6 3.5-7.4 0-.3.2-.5.5-.5s.5.2.5.5c-.1 3.1-1.5 6.1-3.8 8.1-.1.1-.2.2-.3.2zM696.1 185.4c-.1 0-.3-.1-.4-.2-.2-.2-.2-.5 0-.7 1.7-1.5 2.5-3.9 2.1-6.1-.1-.3.1-.5.4-.6.3-.1.5.1.6.4.5 2.6-.5 5.4-2.4 7.1-.1.1-.2.1-.3.1zM701.1 185.1c-.1 0-.3-.1-.4-.2-.2-.2-.1-.5.1-.7 1.3-1 2.3-2.3 3.1-3.7.1-.2.4-.3.7-.2.2.1.3.4.2.7-.8 1.5-2 2.9-3.4 4-.1 0-.2.1-.3.1z"/></g><g><path fill="#4A4E50" d="M581.2 182c.1 0 .3-.1.4-.2.2-.2.2-.5 0-.7-2.1-1.8-3.4-4.6-3.5-7.4 0-.3-.2-.5-.5-.5s-.5.2-.5.5c.1 3.1 1.5 6.1 3.8 8.1.1.2.2.2.3.2zM575.7 185.2c.1 0 .3-.1.4-.2.2-.2.2-.5 0-.7-1.7-1.5-2.5-3.9-2.1-6.1.1-.3-.1-.5-.4-.6-.3-.1-.5.1-.6.4-.5 2.6.5 5.4 2.4 7.1.1 0 .2.1.3.1zM570.7 184.8c.1 0 .3-.1.4-.2.2-.2.1-.5-.1-.7-1.3-1-2.3-2.3-3.1-3.7-.1-.2-.4-.3-.7-.2-.2.1-.3.4-.2.7.8 1.5 2 2.9 3.4 4 .1.1.2.1.3.1z"/></g></g><path opacity=".6" fill="#4D2B16" d="M705.3 337h21.6v78.3h-21.6z"/><g><path fill="#CFBFA0" d="M634.5 44.3h-.7c-1.6-.2-2.9-1.2-3.9-2l-6.4-4.9c-.2-.2-.3-.5-.1-.7.2-.2.5-.3.7-.1l6.4 4.9c1 .8 2.2 1.7 3.5 1.8 2.2.3 4.3-1.4 6-3.1l6.3-6c.2-.2.5-.2.7 0 .2.2.2.5 0 .7l-6.3 6c-1.9 1.7-4 3.4-6.2 3.4z"/></g><text transform="matrix(.996 0 0 1 0 638.38)"><tspan x="0" y="0" fill="#576BB1" font-family="'MyriadPro-Regular'" font-size="206.4819">{REST}</tspan><tspan x="534.4" y="0" fill="#7790C9" font-family="'MyriadPro-Regular'" font-size="206.4819">ing</tspan><tspan x="812.7" y="0" fill="#576BB1" font-family="'MyriadPro-Regular'" font-size="206.4819"> Pug</tspan></text></svg>