<?xml version="1.0" standalone="no"?>
<!DOCTYPE svg PUBLIC "-//W3C//DTD SVG 20010904//EN"
 "http://www.w3.org/TR/2001/REC-SVG-20010904/DTD/svg10.dtd">
<svg version="1.0" xmlns="http://www.w3.org/2000/svg"
 width="960.000000pt" height="960.000000pt" viewBox="0 0 960.000000 960.000000"
 preserveAspectRatio="xMidYMid meet">
<metadata>
Created by potrace 1.11, written by Peter Selinger 2001-2013
</metadata>
<g transform="translate(0.000000,960.000000) scale(0.100000,-0.100000)"
fill="#000000" stroke="none">
<path d="M3405 9584 c-132 -23 -293 -80 -386 -136 -43 -26 -60 -30 -199 -43
-25 -2 -65 -6 -90 -9 -25 -3 -74 -8 -110 -11 -87 -7 -154 -13 -220 -20 -30 -3
-73 -8 -96 -9 -124 -11 -228 -40 -262 -73 -7 -7 -17 -13 -21 -13 -21 0 -107
-102 -137 -162 -18 -38 -33 -70 -33 -71 0 -3 -21 -60 -30 -82 -5 -11 -17 -42
-27 -70 -9 -27 -42 -100 -73 -160 -81 -160 -132 -282 -147 -350 -2 -11 -7 -31
-10 -45 -10 -40 -7 -142 4 -172 15 -36 74 -79 130 -93 40 -11 147 -11 192 -2
8 2 36 7 63 12 26 4 47 10 47 14 0 4 10 7 21 8 33 3 240 108 279 142 39 35 56
39 45 14 -7 -18 -8 -25 -19 -88 -3 -16 -7 -41 -11 -55 -3 -14 -7 -36 -10 -50
-5 -30 -22 -115 -30 -150 -2 -13 -7 -42 -10 -65 -3 -22 -8 -47 -10 -55 -2 -8
-7 -35 -10 -60 -3 -25 -8 -52 -10 -60 -2 -8 -14 -76 -25 -150 -11 -74 -23
-148 -26 -165 -3 -16 -7 -75 -9 -131 -8 -185 44 -310 199 -478 36 -40 46 -66
25 -66 -18 0 -127 -111 -154 -156 -76 -129 -86 -238 -41 -423 9 -38 128 -275
147 -291 3 -3 19 -26 36 -51 24 -37 28 -50 20 -65 -6 -10 -13 -21 -17 -24 -3
-3 -26 -32 -51 -65 -24 -33 -46 -62 -49 -65 -3 -3 -23 -30 -45 -60 -22 -30
-42 -57 -45 -60 -6 -5 -61 -75 -224 -289 -115 -150 -265 -345 -276 -358 -13
-16 -13 -26 2 -17 12 8 4 -9 -19 -36 -7 -8 -36 -47 -65 -87 -29 -39 -74 -93
-99 -120 -46 -49 -105 -133 -93 -133 4 0 0 -8 -8 -17 -25 -30 -48 -128 -49
-213 0 -70 7 -116 27 -177 9 -26 18 -52 19 -58 1 -5 5 -17 8 -25 4 -8 23 -69
43 -135 20 -66 41 -136 47 -155 6 -19 11 -37 12 -40 13 -50 28 -97 33 -105 4
-5 7 -15 8 -21 5 -33 89 -285 106 -319 39 -78 106 -150 186 -202 86 -55 141
-72 259 -78 88 -4 163 12 245 54 34 17 63 29 64 28 4 -4 13 -167 10 -167 -2 0
-28 9 -60 20 -192 66 -438 34 -582 -77 -24 -18 -46 -33 -49 -33 -8 0 -69 -64
-111 -117 -43 -54 -109 -194 -119 -254 -3 -19 -17 -84 -30 -146 -14 -61 -26
-122 -29 -135 -3 -13 -14 -68 -26 -123 -37 -176 -42 -323 -15 -445 4 -14 8
-36 11 -50 3 -14 7 -29 8 -35 1 -5 10 -27 19 -49 9 -21 17 -42 17 -47 0 -5 25
-57 56 -116 159 -304 188 -359 197 -371 8 -10 3 -21 -21 -43 -17 -16 -34 -29
-37 -29 -3 0 -16 -9 -28 -21 -12 -11 -33 -29 -47 -40 -73 -56 -108 -83 -140
-109 -63 -51 -156 -124 -190 -150 -56 -42 -62 -50 -49 -66 6 -8 9 -14 6 -14
-9 0 64 -164 76 -172 9 -6 77 -29 127 -43 3 -1 25 -8 50 -15 25 -7 48 -14 53
-16 4 -1 9 -3 12 -4 3 -1 10 -4 15 -5 6 -1 11 -3 13 -5 1 -1 9 -3 17 -5 8 -1
37 -10 63 -19 26 -9 52 -16 58 -16 9 0 59 51 122 124 27 31 138 154 167 184
14 15 77 85 140 157 63 71 126 141 140 155 14 15 57 62 95 105 39 43 81 90 93
104 13 14 46 51 72 81 26 30 61 69 77 85 15 17 60 66 98 109 104 116 114 127
159 176 23 25 77 85 121 135 116 129 144 157 155 150 6 -4 20 -8 33 -11 31 -6
68 -13 97 -19 85 -17 359 -42 541 -49 48 -2 92 -7 98 -10 6 -4 11 -3 11 2 0 5
16 6 38 3 32 -6 311 -9 1156 -15 l210 -1 1 -35 c4 -72 18 -137 41 -188 13 -29
24 -55 24 -58 0 -13 93 -123 127 -150 42 -34 130 -85 155 -89 10 -2 22 -6 27
-9 5 -3 26 -9 47 -13 56 -11 845 -10 869 1 11 5 22 10 25 11 44 12 83 28 139
60 13 7 45 34 72 60 l47 46 24 -24 c12 -13 50 -54 82 -91 32 -37 78 -87 101
-112 24 -25 53 -58 66 -73 13 -16 60 -69 105 -117 45 -49 96 -107 115 -128 19
-22 50 -56 69 -76 19 -20 60 -66 91 -101 31 -35 67 -76 80 -90 13 -14 53 -58
89 -98 36 -40 90 -100 120 -132 l55 -59 125 40 c69 22 132 42 140 43 8 1 20 5
25 8 6 4 34 12 63 20 58 14 72 27 92 79 7 19 24 59 37 89 13 29 23 55 21 56
-7 7 -178 143 -208 165 -19 14 -47 36 -64 50 -46 38 -53 43 -158 125 -54 42
-98 78 -98 79 0 2 14 30 32 62 202 376 260 499 274 584 2 14 7 36 9 50 3 14 7
36 10 50 11 59 3 298 -11 321 -3 5 -6 21 -8 36 -2 16 -9 46 -15 68 -5 22 -13
56 -16 75 -3 19 -11 55 -17 80 -6 25 -12 54 -13 65 -39 248 -126 413 -280 530
-61 46 -168 98 -230 111 -60 13 -108 18 -175 18 -122 -1 -183 -17 -321 -83
-36 -17 -70 -31 -75 -31 -8 0 -12 115 -5 152 0 4 13 4 29 1 51 -12 193 -5 217
9 6 3 24 9 42 13 63 13 163 88 243 182 11 13 50 78 92 154 14 24 53 93 86 152
34 60 62 113 62 118 0 5 5 9 10 9 6 0 10 4 10 9 0 5 23 49 51 98 125 217 179
319 179 342 0 10 3 21 7 25 13 13 19 161 9 216 -3 19 -9 50 -12 67 -4 18 -10
33 -14 33 -4 0 -11 12 -14 27 -14 55 -83 140 -169 207 -20 16 -49 48 -64 70
-15 23 -30 43 -33 46 -21 19 -78 108 -74 113 6 5 -47 80 -89 127 -7 8 -24 31
-37 50 -13 19 -27 37 -30 40 -3 3 -37 46 -75 95 -38 50 -77 98 -87 108 -10 10
-18 21 -18 25 0 4 -10 19 -23 34 -36 42 -48 58 -127 163 -41 55 -78 105 -83
110 -4 6 -28 37 -52 70 -25 33 -49 65 -53 70 -44 54 -45 57 -13 152 43 129 59
235 55 366 -2 62 -5 126 -8 142 -9 49 -31 121 -42 136 -5 8 -16 28 -24 44 -18
35 -131 151 -163 166 -12 5 -42 21 -67 34 -25 13 -52 24 -60 25 -8 0 -25 6
-38 13 -21 12 -22 14 -5 32 24 27 83 140 83 159 0 9 4 16 8 16 5 0 14 21 21
48 6 26 16 63 21 82 5 19 12 49 16 65 9 41 10 330 1 380 -4 22 -12 69 -18 105
-12 70 -72 310 -88 353 -6 15 -8 27 -5 27 4 0 2 6 -3 13 -11 14 -24 57 -17 57
3 0 19 -14 37 -30 18 -17 70 -54 117 -83 200 -125 406 -173 517 -121 37 18 87
64 78 73 -3 2 0 10 6 17 19 24 12 159 -16 274 -4 14 -8 38 -11 55 -2 16 -9 34
-14 39 -6 6 -10 16 -10 24 0 8 -22 71 -49 141 -26 69 -54 146 -61 171 -30 109
-39 139 -56 198 -9 35 -21 65 -26 68 -4 3 -8 13 -8 23 0 10 -30 50 -67 88 -83
86 -147 119 -268 138 -16 3 -52 9 -80 15 -55 11 -84 17 -130 25 -100 18 -254
47 -275 52 -14 3 -38 7 -55 9 -16 2 -52 9 -80 14 -70 14 -87 18 -130 24 -37 6
-92 34 -118 60 -25 26 -266 146 -296 149 -12 1 -21 5 -21 9 0 4 -3 7 -7 6 -5
-1 -33 5 -63 14 -30 9 -77 19 -105 23 -27 4 -63 10 -80 12 -45 8 -294 7 -340
-1 -93 -17 -189 -39 -215 -49 -8 -3 -33 -11 -55 -18 -22 -6 -46 -16 -52 -22
-7 -5 -13 -6 -13 -2 0 4 -6 3 -12 -2 -42 -32 -176 -61 -260 -57 -77 3 -123 17
-293 89 -176 73 -185 77 -205 81 -8 2 -39 10 -68 20 -29 9 -56 14 -59 10 -3
-3 -15 0 -27 6 -32 17 -296 18 -391 2z"/>
</g>
</svg>
